Coordinates
version=1
nRows=29
nColumns=18
inDegrees=yes

Units are S.I. units (second, meters, Newtons, ...)
Angles are in degrees.

endheader
time	ground_thorax_rot_x	ground_thorax_rot_y	ground_thorax_rot_z	ground_thorax_tx	ground_thorax_ty	ground_thorax_tz	clav_prot	clav_elev	scapula_abduction	scapula_elevation	scapula_upward_rot	scapula_winging	plane_elv	shoulder_elv	axial_rot	elbow_flexion	pro_sup
      4.17000000	      0.24611949	     -6.46255458	     -9.88961551	     -0.00423131	      0.00403036	     -0.00078352	    -43.85626374	     10.42654487	     -2.00658289	     -1.15327792	     79.70208017	    -12.49676387	     40.35770273	     85.43228937	    -10.44108317	      0.00000000	     34.32000000
      4.18000000	      0.31961705	     -6.41387414	     -9.95661369	     -0.00423131	      0.00403036	     -0.00078352	    -43.81733190	     10.42157496	     -1.96283718	     -1.15631984	     79.67186893	    -12.47523193	     40.39900885	     85.36188482	    -10.45032313	      0.00000000	     34.32000000
      4.19000000	      0.21138056	     -6.69837181	     -9.85237671	     -0.00423131	      0.00403036	     -0.00078352	    -43.42875705	     10.38777719	     -1.47479939	     -1.16890296	     79.44360150	    -12.25470905	     40.40031084	     85.23235143	    -10.70698728	      0.00000000	     34.32000000
      4.20000000	      0.25688410	     -6.85616456	     -9.81284689	     -0.00423131	      0.00403036	     -0.00078352	    -43.24834353	     10.43185775	     -1.29699014	     -1.13841902	     79.29578847	    -12.17316655	     40.50278669	     85.13350768	    -10.85474943	      0.00000000	     34.32000000
      4.21000000	      0.20773392	     -6.84807948	     -9.90463167	     -0.00423131	      0.00403036	     -0.00078352	    -43.17869475	     10.28792951	     -1.35137811	     -1.25577960	     79.02740051	    -12.13576220	     40.75932925	     85.10683132	    -10.99698937	      0.00000000	     34.32000000
      4.22000000	      0.48992371	     -7.38450288	     -9.66090200	     -0.00423131	      0.00403036	     -0.00078352	    -42.65272462	     10.63810275	     -0.43173636	     -0.95992067	     79.17730950	    -11.86753931	     40.70255112	     84.80629725	    -10.95016811	      0.00000000	     34.32000000
      4.23000000	      0.55481222	     -7.61006348	     -9.64289576	     -0.00423131	      0.00403036	     -0.00078352	    -42.31153349	     10.64112391	      0.04218724	     -0.94193383	     79.03976732	    -11.68077678	     40.83991364	     84.66648178	    -10.80104527	      0.00000000	     34.32000000
      4.24000000	      0.53802983	     -7.72048163	     -9.65582890	     -0.00423131	      0.00403036	     -0.00078352	    -42.06704824	     10.59211342	      0.28243722	     -0.97736778	     78.79845646	    -11.55844120	     41.05073542	     84.50937476	    -10.69150876	      0.00000000	     34.32000000
      4.25000000	      0.27203207	     -7.22631591	     -9.81796209	     -0.00423131	      0.00403036	     -0.00078352	    -42.29971448	     10.33448376	     -0.53749509	     -1.22964494	     78.18233096	    -11.72825620	     41.72920967	     84.49204051	    -10.87847089	      0.00000000	     34.32000000
      4.26000000	      0.35044394	     -7.27175286	     -9.92390333	     -0.00423131	      0.00403036	     -0.00078352	    -42.20861607	     10.29347050	     -0.42667289	     -1.25600615	     78.11236583	    -11.67394204	     42.03810260	     84.41753657	    -10.94357927	      0.00000000	     34.32000000
      4.27000000	      0.27746540	     -7.38559677	     -9.88845504	     -0.00423131	      0.00403036	     -0.00078352	    -41.79076423	     10.30372881	     -0.02815532	     -1.24915693	     77.71977525	    -11.48230190	     42.24615706	     84.50705269	    -10.46978953	      0.00000000	     34.32000000
      4.28000000	      0.52573772	     -7.55241354	     -9.68379174	     -0.00423131	      0.00403036	     -0.00078352	    -41.43360297	     10.67243192	      0.42438827	     -0.97616600	     77.64495892	    -11.36367316	     42.47179611	     84.30731725	    -10.30985187	      0.00000000	     34.32000000
      4.29000000	      0.66000763	     -7.57973942	     -9.56420759	     -0.00423131	      0.00403036	     -0.00078352	    -41.14655542	     10.80021877	      0.65287941	     -0.89067336	     77.35868039	    -11.26311257	     42.84055133	     84.18821396	    -10.10554402	      0.00000000	     34.32000000
      4.30000000	      0.42192665	     -6.91562486	     -9.74041748	     -0.00423131	      0.00403036	     -0.00078352	    -41.41561079	     10.43603845	     -0.30034732	     -1.22304889	     76.62603847	    -11.43554766	     43.69320549	     84.27954603	    -10.08990289	      0.00000000	     34.32000000
      4.31000000	      0.41495831	     -6.88705127	     -9.72733961	     -0.00423131	      0.00403036	     -0.00078352	    -41.27501214	     10.43940156	     -0.34876521	     -1.23843725	     76.26823633	    -11.40005513	     44.12498395	     84.21861606	    -10.12983417	      0.00000000	     34.32000000
      4.32000000	      0.50130996	     -6.87085671	     -9.88298858	     -0.00423131	      0.00403036	     -0.00078352	    -41.23066404	     10.45740365	     -0.32268662	     -1.22698871	     76.21270154	    -11.38524802	     44.19645174	     84.12186030	    -10.14078049	      0.00000000	     34.32000000
      4.33000000	      0.43637813	     -6.91239524	     -9.74868283	     -0.00423131	      0.00403036	     -0.00078352	    -41.01447350	     10.50996040	     -0.40198462	     -1.21615544	     75.67454728	    -11.33839888	     44.80176963	     84.13670182	    -10.20021183	      0.00000000	     34.32000000
      4.34000000	      0.51503813	     -7.09625418	     -9.66782967	     -0.00423131	      0.00403036	     -0.00078352	    -40.68580970	     10.45135517	      0.04864518	     -1.24036826	     75.51444845	    -11.15993380	     45.03706105	     83.90381440	    -10.08624538	      0.00000000	     34.32000000
      4.35000000	      0.54323678	     -7.21097968	     -9.66955241	     -0.00423131	      0.00403036	     -0.00078352	    -40.38383708	     10.28472778	      0.39724759	     -1.34800186	     75.24737755	    -10.98778658	     45.34873469	     83.81069774	     -9.87351982	      0.00000000	     34.32000000
      4.36000000	      0.48027119	     -7.18844161	     -9.76813076	     -0.00423131	      0.00403036	     -0.00078352	    -40.24280464	     10.15503989	      0.35720481	     -1.45321637	     74.85570543	    -10.92648190	     45.76754593	     83.89440508	     -9.64862530	      0.00000000	     34.32000000
      4.37000000	      0.52905645	     -7.04734426	     -9.72629771	     -0.00423131	      0.00403036	     -0.00078352	    -40.28187258	     10.39365239	     -0.07001330	     -1.32125424	     74.49548686	    -11.03949344	     46.39419528	     84.01934029	     -9.58722985	      0.00000000	     34.32000000
      4.38000000	      0.58656239	     -7.05397976	     -9.69499957	     -0.00423131	      0.00403036	     -0.00078352	    -40.20362567	     10.59276195	     -0.19199039	     -1.19744621	     74.25033850	    -11.06580627	     46.86007025	     84.03505779	     -9.68254028	      0.00000000	     34.32000000
      4.39000000	      0.45405829	     -6.96991651	     -9.81472468	     -0.00423131	      0.00403036	     -0.00078352	    -40.20770657	     10.40005027	     -0.47912969	     -1.35635787	     73.84015458	    -11.06956786	     47.49603135	     83.99199014	     -9.46082634	      0.00000000	     34.32000000
      4.40000000	      0.56188586	     -7.09856322	     -9.72395390	     -0.00423131	      0.00403036	     -0.00078352	    -40.08665709	     10.55060541	     -0.46942568	     -1.25715961	     73.65050241	    -11.05568918	     48.00726687	     83.72158564	     -9.27888984	      0.00000000	     34.32000000
      4.41000000	      0.60638129	     -7.14921612	     -9.70933176	     -0.00423131	      0.00403036	     -0.00078352	    -39.95827179	     10.57722800	     -0.45122668	     -1.24405617	     73.41277101	    -11.01596990	     48.37856173	     83.55269340	     -9.10447373	      0.00000000	     34.32000000
      4.42000000	      0.60927229	     -7.19953192	     -9.72262976	     -0.00423131	      0.00403036	     -0.00078352	    -39.75587676	     10.53382998	     -0.22747171	     -1.26718095	     73.24612526	    -10.91501659	     48.49058216	     83.41863301	     -8.92497004	      0.00000000	     34.32000000
      4.43000000	      0.58154315	     -7.25506325	     -9.75107695	     -0.00423131	      0.00403036	     -0.00078352	    -39.53237249	     10.44696809	      0.07306195	     -1.31565779	     73.11325460	    -10.79142096	     48.49284767	     83.28564681	     -8.75287561	      0.00000000	     34.32000000
      4.44000000	      0.55839062	     -7.29635630	     -9.75680485	     -0.00423131	      0.00403036	     -0.00078352	    -39.36460791	     10.38862470	      0.23309404	     -1.35225893	     72.93595152	    -10.70834300	     48.57714956	     83.06519187	     -8.68527768	      0.00000000	     34.32000000
      4.45000000	      0.48411490	     -7.21845274	     -9.81928565	     -0.00423131	      0.00403036	     -0.00078352	    -39.30825946	     10.26065483	      0.09645235	     -1.45443658	     72.60734552	    -10.68237643	     48.82000317	     82.87416107	     -8.68537862	      0.00000000	     34.32000000
